<svg width="2560" height="710" viewBox="0 0 2560 710" fill="none" xmlns="http://www.w3.org/2000/svg">
<g style="mix-blend-mode:soft-light">
<path fill-rule="evenodd" clip-rule="evenodd" d="M667.763 2.81382C642.194 11.2502 619.028 27.4896 578.35 65.491C468.684 167.946 297.778 237.231 185.992 224.555C118.268 216.876 68.9978 192.653 22.1279 143.991L0 121.014V138.727V156.44L16.6024 171.982C91.9937 242.57 187.121 263.557 300.87 234.698C396.049 210.547 501.592 151.458 582.315 77.1282C624.811 37.9944 653.705 22.0705 682.206 22.0705C714.834 22.0705 739.171 41.4977 788.787 107.14C804.051 127.338 821.038 147.427 826.53 151.781C852.001 171.974 887.362 179.635 933.382 174.937C967.654 171.436 994.491 165.508 1073.14 144.056C1151.31 122.739 1185.87 114.693 1222.19 109.356C1253.51 104.757 1300.49 104.128 1325.19 107.981C1353.14 112.337 1391.48 125.919 1428.4 144.539C1484.19 172.677 1517.78 198.708 1604.46 280.985C1659.48 333.207 1686.7 354.421 1719.13 370.365C1750.6 385.829 1778.76 392.27 1815.02 392.293C1866.24 392.324 1917.18 379.221 1983.41 348.973C2042.24 322.107 2088.81 293.709 2164.71 238.423C2211.33 204.463 2233.54 192.358 2260.07 186.45C2309.46 175.454 2380.98 194.703 2519.62 256.302C2540.76 265.695 2558.49 273.379 2559.01 273.379C2559.54 273.379 2559.97 268.436 2559.96 262.391L2559.96 251.402L2519.28 232.283C2383.78 168.6 2315.06 147.034 2268.85 153.7C2243.58 157.343 2219.49 169.451 2187.99 194.333C2101.8 262.427 2063.09 288.041 1998.12 319.969C1884.25 375.924 1805.48 384.704 1734.85 349.309C1704.85 334.272 1678.66 313.537 1626.49 263.505C1568.15 207.568 1536.74 180.661 1504.84 159.318C1459.25 128.812 1400.69 104.744 1351.02 96.103C1318.2 90.3891 1253.65 92.186 1210.24 100.015C1193.19 103.092 1142.62 114.933 1097.87 126.327C989.738 153.863 973.094 157.19 935.126 158.86C899.444 160.43 882.167 157.937 861.143 148.182C841.133 138.898 828.754 126.102 798.58 83.5118C752.583 18.5904 731.424 1.34785 696.178 0.0628711C686.233 -0.299096 673.446 0.939348 667.763 2.81382ZM644.173 42.8551C624.388 49.6989 603.787 62.9857 579.383 84.639C539.26 120.238 518.225 136.636 479.696 162.34C412.977 206.855 342.956 238.307 275.005 254.288C246.977 260.878 239.806 261.54 197.616 261.419C158.672 261.305 147.897 260.402 131.292 255.852C88.3307 244.083 48.1797 222.171 13.5619 191.605L0 179.632V196.21V212.786L18.7284 227.639C41.5769 245.761 87.0365 268.658 114.953 276.107C141.22 283.118 206.616 285.833 238.124 281.223C340.288 266.271 458.615 205.138 563.142 113.307C608.857 73.144 631.784 60.6665 660.013 60.5915C688.612 60.5165 708.34 74.3669 754.184 126.7C795.611 173.993 807.59 185.162 826.631 194.258C843.28 202.211 843.773 202.278 884.753 202.19C932.607 202.087 948.484 198.796 1046.2 168.721C1162.53 132.92 1204.63 124.696 1261.83 126.588C1303.99 127.985 1321.81 132.913 1365.01 155.122C1422.74 184.803 1466.55 218.267 1548.64 295.381C1608.15 351.282 1629.83 369.838 1657.14 388.208C1742.63 445.727 1834.94 447.674 1962.26 394.638C2017.46 371.645 2062.63 346.923 2167.32 282.42C2200.63 261.899 2224.73 251.113 2251.79 244.623C2271.17 239.98 2279.49 239.388 2308.11 240.624C2344.13 242.18 2370.09 247.046 2419.19 261.45C2447.09 269.635 2510.8 292.253 2546.41 306.615L2559.97 312.086V300.751V289.417L2530.91 277.203C2425.53 232.906 2355.59 212.057 2304.23 209.624C2248.71 206.997 2225.36 215.94 2141.49 271.931C2077.26 314.814 2042.49 335.221 1995.54 357.593C1914.13 396.388 1850.11 412.92 1794.24 409.582C1728.86 405.673 1681.03 380.351 1604.63 309.19C1525.08 235.098 1508.65 220.405 1484.86 202.097C1438.39 166.322 1390.88 140.1 1343.65 124.155C1317.92 115.473 1313.57 114.796 1276.11 113.656C1216.23 111.833 1177.14 118.783 1066.93 150.845C953.741 183.777 909.247 191.792 871.912 185.982C833.629 180.025 819.852 169.787 773.261 112.668C739.421 71.1816 716.813 50.2522 698.376 43.3489C681.247 36.9344 661.798 36.7586 644.173 42.8551ZM625.14 79.3052C605.008 85.4741 582.695 100.77 542.205 136.162C496.503 176.111 439 215.203 383.477 244.07C274.653 300.648 175.173 315.424 91.7044 287.413C65.154 278.503 46.7563 269.185 20.8414 251.521L0 237.319L0.023249 253.409L0.0439148 269.501L14.8768 278.938C46.3301 298.949 79.2041 311.983 115.439 318.808C143.668 324.124 212.891 322.637 242.823 316.07C339.167 294.932 442.165 236.717 555.393 139.402C585.634 113.41 611.487 99.6167 632.863 98.068C645.94 97.1217 650.631 98.1275 665.412 105.054C680.449 112.094 689.082 119.621 732.054 163.145C759.209 190.646 786.684 216.186 793.113 219.898C812.95 231.355 834.468 235.478 865.379 233.746C901.524 231.719 930.357 224.283 1032 190.781C1213.52 130.948 1261.04 130.257 1344.57 186.254C1390.09 216.77 1429.68 250.097 1504.6 320.975C1583.1 395.233 1616.19 421.431 1658.43 442.736C1735.86 481.794 1819.53 482.658 1926.2 445.494C1968.29 430.835 2013.07 411.045 2065.29 384.043C2208.26 310.103 2227.92 302.093 2280.95 296.193C2338.56 289.781 2433.62 306.752 2536.53 341.822C2547.08 345.416 2556.74 348.358 2557.99 348.358C2559.24 348.358 2559.91 343.414 2559.47 337.37L2558.68 326.381L2500.56 306.879C2407.07 275.512 2359.23 265.338 2304.23 265.134C2243.25 264.906 2214.86 274.814 2118.94 329.802C2027.81 382.044 1950.43 417.912 1892.89 434.571C1853.01 446.117 1822.25 449.975 1781.57 448.532C1739.14 447.03 1713.61 440.709 1678.39 422.98C1635.72 401.507 1607.56 379.332 1527.98 304.506C1451.96 233.04 1417.97 205.215 1371.62 176.519C1315.38 141.703 1289.87 133.437 1238.65 133.443C1186.46 133.45 1140.9 143.314 1035.21 177.489C934.85 209.939 899.116 217.773 859.923 215.912C815.285 213.794 807.262 208.127 724.48 120.228C692.598 86.3765 675.613 76.7507 648.389 77.1075C639.154 77.2291 628.691 78.2167 625.14 79.3052ZM599.783 117.86C582.821 123.889 559.756 139.898 524.394 170.174C464.626 221.349 404.189 262.155 344.86 291.395C222.728 351.582 115.925 356.228 21.3116 305.47L0 294.037V310.509V326.981L18.3822 335.208C65.03 356.083 96.6176 362.627 149.827 362.431C196.384 362.26 220.579 358.242 267.092 342.954C345.023 317.342 427.192 266.654 528.147 181.92C572.326 144.842 590.555 135.004 614.768 135.175C627.224 135.263 634.602 136.866 643.158 141.341C649.626 144.726 674.665 166.919 699.988 191.719C765.525 255.893 781.902 265.387 827.32 265.537C869.652 265.679 903.515 256.39 1022.96 211.87C1116.15 177.132 1157.53 166.806 1203.78 166.749C1267.69 166.666 1293.07 183.924 1440.11 327.475C1531.3 416.498 1580.12 456.327 1627.12 480.054C1678.13 505.803 1744.25 517.642 1802.65 511.483C1877.82 503.559 1949.53 479.873 2087.7 417.336C2123.68 401.05 2164.74 383.383 2178.95 378.07C2262.75 346.744 2336.57 341.599 2439.85 359.892C2469.64 365.166 2537.11 380.464 2555.45 386.098C2559.28 387.277 2559.97 385.752 2559.97 376.095V364.703L2521.69 353.914C2429.11 327.827 2388.12 321.205 2319.73 321.301C2239.29 321.412 2217.61 327.767 2094.99 387.194C2012.81 427.024 1981.53 440.778 1933.51 458.202C1799.21 506.925 1702.67 500.102 1605.58 435.028C1574.86 414.435 1550.28 393.195 1481.48 327.775C1367.09 219.006 1312.01 175.413 1270.4 160.719C1250.67 153.751 1218.63 151.197 1189.88 154.294C1142.88 159.359 1107.04 169.611 981.624 213.856C921.629 235.021 882.86 244.848 851.838 246.756C801.597 249.843 781.21 238.555 713.199 169.991C682.288 138.828 666.747 125.084 657.43 120.67C640.195 112.508 617.888 111.419 599.783 117.86ZM580.822 152.88C564.196 158.824 549.183 169.073 513.779 198.648C428.169 270.165 375.474 306.147 311.278 336.922C237.38 372.351 162.841 387.559 102.037 379.614C73.3506 375.865 36.984 366.454 17.0028 357.611C8.71837 353.942 1.44919 350.943 0.847297 350.943C0.245406 350.943 0.100746 358.113 0.521811 366.872L1.29161 382.804L18.7258 388.678C54.7075 400.807 76.0965 403.891 123.995 403.868C161.614 403.85 173.685 402.849 195.922 397.906C286.12 377.861 369.184 332.031 477.857 242.353C555.796 178.039 568.665 169.926 592.663 169.986C613.799 170.035 628.454 180.092 671.588 224.144C730.509 284.318 756.13 299.234 800.566 299.234C842.295 299.234 871.186 290.854 976.458 248.212C1082.87 205.107 1118.5 193.622 1162.79 188.156C1191.71 184.586 1217.79 188.074 1238.65 198.297C1255.17 206.392 1279.68 230.339 1403.62 359.499C1487.78 447.201 1540.21 490.008 1597.27 517.611C1646.47 541.41 1682.22 549.909 1741.09 551.794C1826.13 554.516 1898.09 537.258 2056.55 476.14C2140.66 443.7 2174.8 431.838 2212.53 421.943C2272.63 406.185 2290.46 404.103 2364.94 404.158C2433.89 404.209 2458.04 406.355 2523.29 418.228C2561.16 425.121 2559.97 425.281 2559.97 413.227V403.116L2536.46 397.696C2466.68 381.617 2406.24 374.197 2345.58 374.259C2256.75 374.352 2209.12 385.958 2085.95 437.523C1913.02 509.922 1844.55 529.29 1761.45 529.326C1675.6 529.362 1610.24 504.125 1529.27 439.667C1517.19 430.054 1464.3 379.652 1411.73 327.664C1312.66 229.687 1276.22 196.029 1260.58 188.04C1236.08 175.532 1203.87 170.898 1169.99 175.012C1123.8 180.622 1087.86 191.629 985.499 231.523C852.801 283.24 811.261 290.528 768.048 269.674C742.596 257.39 723.565 242.02 687.098 204.287C654.332 170.386 638.598 157.656 622.817 152.273C611.371 148.366 592.687 148.637 580.822 152.88ZM568.539 185.829C552.481 188.79 536.339 199.357 493.395 235.021C401.526 311.318 348.513 348.484 290.612 377.186C251.012 396.817 202.628 413.341 166.925 419.427C123.114 426.894 57.0169 423.44 16.9666 411.593C9.9609 409.52 3.27811 407.824 2.11308 407.824C0.950626 407.824 0 414.606 0 422.892V437.963L12.3969 440.825C40.802 447.387 71.9866 449.835 108.495 448.367C169.426 445.918 217.352 432.97 278.928 402.324C336.209 373.814 380.124 343.226 466.271 271.823C525.533 222.706 531.239 218.301 543.889 211.889C576.797 195.204 596.35 204.008 642.907 256.47C675.102 292.744 697.493 311.311 724.749 324.336C745.099 334.06 745.502 334.135 776.258 333.91C821.446 333.577 844.698 325.999 966.125 272.05C1003.78 255.322 1046.67 237.081 1061.46 231.515C1136.65 203.204 1194 201.143 1226.04 225.599C1230.88 229.294 1254.99 257.631 1279.61 288.571C1379.46 414.003 1442.3 478.749 1505.16 520.98C1600.17 584.805 1696.51 605.272 1817.87 587.409C1870.56 579.655 1932.73 563.059 2049.79 525.499C2194.35 479.116 2240.06 467.766 2321.02 458.16C2379.21 451.257 2480.68 452.622 2547.7 461.211L2559.97 462.786V452.284C2559.97 444.545 2558.78 441.412 2555.45 440.367C2538.83 435.16 2463.38 428.091 2410.15 426.752C2296.8 423.903 2233.54 435.088 2097.77 481.978C1876.09 558.537 1833.79 569.075 1747.55 569.217C1693.38 569.308 1671.75 566.233 1629.32 552.419C1536.2 522.105 1462.96 461.718 1315.99 294.063C1276.83 249.401 1246.46 217.057 1238.88 211.951C1220.72 199.714 1201.76 194.902 1172.78 195.181C1124.89 195.641 1089.41 206.485 970.26 257.059C827.974 317.454 786.891 325.856 741.075 303.932C713.656 290.81 695.463 275.959 657.169 235.445C613.487 189.232 597.781 180.439 568.539 185.829ZM1123.7 218.29C1089.55 224.035 1045.3 241.071 951.917 284.419C812.878 348.96 773.241 359.824 727.908 345.811C696.235 336.02 675.027 318.684 617.777 255.8C590.651 226 579.876 219.084 560.58 219.084C536.551 219.084 529.656 223.528 448.204 291.537C357.786 367.03 318.919 394.322 260.846 423.089C200.732 452.865 151.795 466.132 91.4641 469.004C61.2043 470.447 14.7192 467.22 3.4641 462.897C0.800798 461.873 0 465.193 0 477.239V492.909L9.26343 494.649C14.3575 495.606 40.8046 495.761 68.0317 494.993C108.317 493.856 122.613 492.397 144.784 487.159C183.013 478.131 208.283 469.126 244.114 451.767C298.91 425.216 337.924 398.255 414.315 334.138C514.162 250.335 521.093 245.102 539.482 239.584C561.569 232.963 579.2 244.799 618.519 292.646C647.763 328.232 668.535 346.561 693.869 359.129C718.048 371.126 738.582 374.634 765.287 371.335C802.956 366.684 834.329 354.511 937.709 304.443C1057.08 246.632 1104.75 229.426 1145.52 229.426C1188.01 229.426 1202.81 240.277 1238.32 297.476C1361.47 495.795 1475.65 592.427 1624.58 624.35C1655.14 630.901 1661.25 631.333 1724.3 631.398C1767.85 631.444 1799.64 630.24 1814.71 627.977C1868.36 619.921 1957.04 599.467 2062.7 570.779C2260.81 516.99 2361.42 500.637 2498.62 499.926L2559.97 499.608L2559.97 489.01L2559.97 478.413L2534.79 476.742C2496.85 474.227 2402.57 474.762 2367.52 477.689C2287.1 484.408 2212.66 499.433 2103.18 531.037C2061.03 543.21 2002.38 559.99 1972.84 568.328C1847.34 603.764 1767.2 615.683 1695.88 609.522C1528.61 595.069 1409.75 505.788 1248.84 273.736C1215.66 225.886 1199.76 216.227 1155.25 216.85C1141.45 217.044 1127.25 217.69 1123.7 218.29ZM1092.53 243.157C1056.43 252.951 1020.27 268.821 926.759 315.9C806.146 376.625 775.269 388.195 733.441 388.345C709.505 388.43 707.996 388.081 686.811 377.576C659.6 364.08 637.926 344.562 607.488 306.15C569.957 258.784 553.972 247.387 532.082 252.393C513.568 256.622 494.935 270.137 426.162 329.22C360.501 385.625 353.514 391.393 325.486 412.343C230.627 483.25 146.089 514.994 43.269 518.317L0 519.716V534.701V549.689L23.8948 548.404C140.207 542.147 230.191 505.744 332.879 423.396C349.022 410.451 380.989 383.262 403.918 362.974C472.13 302.618 507.365 275.16 521.002 271.735C530.942 269.237 544.817 272.58 554.176 279.726C558.926 283.351 574.555 301.923 588.905 320.993C621.291 364.031 644.289 386.16 669.488 398.532C724.565 425.571 766.754 414.836 914.065 336.302C1000.02 290.474 1036.51 273.076 1072.03 260.987C1096.09 252.799 1102.23 251.733 1126.28 251.578C1171.14 251.289 1179.3 258.205 1211.47 323.796C1334.81 575.301 1493.53 680.814 1737.22 673.309C1826.81 670.55 1896.4 659.026 2101.45 613.007C2299.93 568.46 2400.96 550.881 2508.31 542.212C2562.91 537.801 2559.97 538.709 2559.97 526.249V515.636L2516.7 517.389C2375.35 523.11 2284.57 538.628 2031.7 600.284C1882.51 636.662 1816.11 647.94 1738.51 650.081C1677.5 651.764 1635.04 647.614 1587.26 635.302C1442.94 598.115 1328.1 492.827 1224.4 302.628C1202.42 262.311 1197.09 255.513 1180.2 246.247C1167.87 239.486 1163.45 238.555 1140.49 237.896C1119.86 237.301 1110.2 238.361 1092.53 243.157ZM1083.66 262.672C1042.74 273.345 1007.09 290.241 902.836 348.36C831.645 388.048 788.2 409.323 756.884 419.841C738.566 425.992 730.643 427.215 709.094 427.215C684.538 427.215 682.252 426.731 662.821 417.447C646.428 409.613 637.963 403.209 620.094 385.128C607.837 372.726 590.338 351.525 581.202 338.016C551.172 293.605 537.506 282.152 517.264 284.434C498.164 286.591 463.825 312.678 378.191 390.098C353.899 412.059 322.631 439.199 308.705 450.409C219.414 522.288 130.422 560.605 27.8265 571.342L0 574.254V589.446V604.638L12.2703 602.955C90.0201 592.305 161.673 567.723 221.591 531.138C267.609 503.042 301.165 476.044 373.275 409.114C425.064 361.045 451.178 338.727 478.689 319.026C517.623 291.144 526.595 295.216 568.939 359.992C602.534 411.381 628.49 435.245 663.464 446.896C676.817 451.343 684.174 452.157 702.267 451.198C743.345 449.018 784.708 430.785 897.669 365.068C979.661 317.366 1029.07 292.013 1062.24 280.626C1082 273.842 1090.35 272.358 1109.49 272.236C1135.15 272.071 1142.66 274.729 1156.48 288.871C1165.55 298.163 1167.69 302.781 1185.83 352.236C1255.93 543.45 1367.91 653.602 1534.08 694.815C1594.66 709.841 1608.35 710.86 1732.65 709.616C1856.29 708.375 1863.41 707.763 1981.33 688.162C2049.15 676.887 2104.09 666.206 2274.53 631.157C2382.87 608.878 2498.61 586.281 2550.29 577.325C2559.56 575.717 2559.97 575.213 2559.97 565.422C2559.97 552.846 2563.1 553.032 2498.87 561.748C2406.18 574.326 2334.34 587.59 2155.7 625.107C1972.9 663.502 1902.14 676.158 1814.71 686.096C1767.88 691.422 1666.05 692.224 1630.01 687.549C1486.96 668.999 1384.42 613.24 1301.04 508.657C1263.4 461.454 1224.38 392.869 1197.33 326.381C1181.79 288.181 1173.49 275.527 1158.03 266.458C1142.22 257.186 1110.82 255.588 1083.66 262.672Z" fill="#C4C4C4"/>
</g>
</svg>
