<svg width="2560" height="1610" viewBox="0 0 2560 1610" fill="none" xmlns="http://www.w3.org/2000/svg">
<path fill-rule="evenodd" clip-rule="evenodd" d="M-187.662 4.50363C-189.489 7.29083 -190.94 10.2839 -190.89 11.1558C-190.839 12.0276 243.798 356.865 774.967 777.461C1306.14 1198.06 1740.47 1542.92 1740.16 1543.83C1738.92 1547.42 1707.21 1587.74 1705.92 1587.37C1705.16 1587.15 1254.28 1232.77 703.955 799.856C153.631 366.942 -297.872 11.9974 -299.381 11.0871C-302.217 9.38375 -309.867 16.5647 -310 21.0553C-310.061 23.0937 1703.5 1608.24 1708.1 1609.78C1709.16 1610.13 1719.75 1597.88 1731.64 1582.55C1743.52 1567.22 1753.95 1554.68 1754.82 1554.68C1755.68 1554.68 1771.93 1566.94 1790.91 1581.93C1809.9 1596.91 1826.53 1609.17 1827.86 1609.17C1829.2 1609.17 1839.72 1596.91 1851.24 1581.93C1862.76 1566.94 1872.78 1554.47 1873.51 1554.21C1874.23 1553.95 1890.72 1566.4 1910.15 1581.88C1929.57 1597.37 1946.38 1610.02 1947.49 1610C1948.6 1609.98 2086.49 1431.9 2253.92 1214.28L2558.33 818.585L2553.74 813.695C2551.21 811.003 2548.02 809.059 2546.65 809.374C2545.29 809.689 2409.59 984.778 2245.11 1198.46C2080.63 1412.14 1945.77 1587.28 1945.42 1587.65C1944.94 1588.16 1915.66 1565.55 1884.25 1540.43C1883.89 1540.14 2034.88 1343.42 2219.79 1103.27C2404.7 863.132 2556 665.62 2556.01 664.361C2556.02 663.102 2553.64 660.51 2550.73 658.601C2545.61 655.245 2545.29 655.285 2540.9 659.883C2538.41 662.496 2387.2 858.536 2204.88 1095.53C2022.56 1332.52 1872.72 1527.13 1871.92 1528C1869.99 1530.08 1812.19 1483.72 1812.47 1480.32C1812.6 1478.87 1980.85 1259.98 2186.38 993.888C2391.91 727.794 2560.03 509.436 2560 508.647C2559.9 506.431 2550.07 499.773 2547.98 500.506C2546.96 500.863 2378.88 717.764 2174.46 982.507C1970.05 1247.25 1801.29 1465.38 1799.45 1467.24C1796.33 1470.41 1734.59 1421.9 867.655 735.121C357.006 330.592 -61.9942 -0.156499 -63.4575 0.122018C-66.2711 0.658872 -73.3859 11.0427 -71.8116 12.3102C-71.305 12.7199 346.46 343.476 856.554 747.323C1366.65 1151.17 1784.63 1482.14 1785.4 1482.82C1787.82 1484.92 1752.47 1529.52 1749.69 1527.89C1748.32 1527.08 1313.8 1183.12 784.094 763.528C254.384 343.934 -180.212 0.36219 -181.678 0.0352339C-183.143 -0.29374 -185.838 1.71845 -187.662 4.50363ZM1831.93 1519.89C1847.2 1531.97 1859.69 1542.34 1859.69 1542.92C1859.69 1543.69 1837.69 1573.08 1826.16 1587.71C1825.72 1588.28 1774.72 1548.98 1766.16 1541.47C1763.62 1539.25 1798.88 1494.75 1801.79 1496.49C1803.1 1497.28 1816.67 1507.81 1831.93 1519.89Z" fill="#E5BE5A"/>
</svg>
